# MagicaVoxel @ Ephtracy

# group
g coin

# material
mtllib coin.mtl
usemtl palette

# normals
vn -1 0 0
vn 1 0 0
vn 0 0 1
vn 0 0 -1
vn 0 -1 0
vn 0 1 0

# texcoords
vt 0.958984 0.5

# verts
v -1.5 0 1.5
v -1.5 0 -1.5
v -1.5 1 3.5
v -1.5 1 1.5
v -1.5 1 -1.5
v -1.5 1 -3.5
v -1.5 2 2.5
v -1.5 2 1.5
v -1.5 2 -1.5
v -1.5 2 -2.5
v -1.5 3 4.5
v -1.5 3 3.5
v -1.5 3 2.5
v -1.5 3 -2.5
v -1.5 3 -3.5
v -1.5 3 -4.5
v -1.5 6 4.5
v -1.5 6 3.5
v -1.5 6 2.5
v -1.5 6 -2.5
v -1.5 6 -3.5
v -1.5 6 -4.5
v -1.5 7 2.5
v -1.5 7 1.5
v -1.5 7 -1.5
v -1.5 7 -2.5
v -1.5 8 3.5
v -1.5 8 1.5
v -1.5 8 -1.5
v -1.5 8 -3.5
v -1.5 9 1.5
v -1.5 9 -1.5
v -0.5 1 1.5
v -0.5 1 -1.5
v -0.5 2 2.5
v -0.5 2 1.5
v -0.5 2 -1.5
v -0.5 2 -2.5
v -0.5 3 3.5
v -0.5 3 2.5
v -0.5 3 1.5
v -0.5 3 0.5
v -0.5 3 -0.5
v -0.5 3 -1.5
v -0.5 3 -2.5
v -0.5 3 -3.5
v -0.5 6 3.5
v -0.5 6 2.5
v -0.5 6 -0.5
v -0.5 6 -1.5
v -0.5 6 -2.5
v -0.5 6 -3.5
v -0.5 7 2.5
v -0.5 7 1.5
v -0.5 7 0.5
v -0.5 7 -1.5
v -0.5 7 -2.5
v -0.5 8 1.5
v -0.5 8 -1.5
v 0.5 1 1.5
v 0.5 1 -1.5
v 0.5 2 2.5
v 0.5 2 1.5
v 0.5 2 -1.5
v 0.5 2 -2.5
v 0.5 3 3.5
v 0.5 3 2.5
v 0.5 3 1.5
v 0.5 3 0.5
v 0.5 3 -0.5
v 0.5 3 -1.5
v 0.5 3 -2.5
v 0.5 3 -3.5
v 0.5 6 3.5
v 0.5 6 2.5
v 0.5 6 -0.5
v 0.5 6 -1.5
v 0.5 6 -2.5
v 0.5 6 -3.5
v 0.5 7 2.5
v 0.5 7 1.5
v 0.5 7 0.5
v 0.5 7 -1.5
v 0.5 7 -2.5
v 0.5 8 1.5
v 0.5 8 -1.5
v 1.5 0 1.5
v 1.5 0 -1.5
v 1.5 1 3.5
v 1.5 1 1.5
v 1.5 1 -1.5
v 1.5 1 -3.5
v 1.5 2 2.5
v 1.5 2 1.5
v 1.5 2 -1.5
v 1.5 2 -2.5
v 1.5 3 4.5
v 1.5 3 3.5
v 1.5 3 2.5
v 1.5 3 -2.5
v 1.5 3 -3.5
v 1.5 3 -4.5
v 1.5 6 4.5
v 1.5 6 3.5
v 1.5 6 2.5
v 1.5 6 -2.5
v 1.5 6 -3.5
v 1.5 6 -4.5
v 1.5 7 2.5
v 1.5 7 1.5
v 1.5 7 -1.5
v 1.5 7 -2.5
v 1.5 8 3.5
v 1.5 8 1.5
v 1.5 8 -1.5
v 1.5 8 -3.5
v 1.5 9 1.5
v 1.5 9 -1.5
v -1.5 3 4.5
v -1.5 6 4.5
v 1.5 3 4.5
v 1.5 6 4.5
v -1.5 1 3.5
v -1.5 3 3.5
v -1.5 6 3.5
v -1.5 8 3.5
v 1.5 1 3.5
v 1.5 3 3.5
v 1.5 6 3.5
v 1.5 8 3.5
v -1.5 0 1.5
v -1.5 1 1.5
v -1.5 8 1.5
v -1.5 9 1.5
v 1.5 0 1.5
v 1.5 1 1.5
v 1.5 8 1.5
v 1.5 9 1.5
v -0.5 3 -0.5
v -0.5 6 -0.5
v 0.5 3 -0.5
v 0.5 6 -0.5
v -1.5 1 -1.5
v -1.5 2 -1.5
v -1.5 7 -1.5
v -1.5 8 -1.5
v -0.5 1 -1.5
v -0.5 2 -1.5
v -0.5 3 -1.5
v -0.5 6 -1.5
v -0.5 7 -1.5
v -0.5 8 -1.5
v 0.5 1 -1.5
v 0.5 2 -1.5
v 0.5 3 -1.5
v 0.5 6 -1.5
v 0.5 7 -1.5
v 0.5 8 -1.5
v 1.5 1 -1.5
v 1.5 2 -1.5
v 1.5 7 -1.5
v 1.5 8 -1.5
v -1.5 2 -2.5
v -1.5 3 -2.5
v -1.5 6 -2.5
v -1.5 7 -2.5
v -0.5 2 -2.5
v -0.5 3 -2.5
v -0.5 6 -2.5
v -0.5 7 -2.5
v 0.5 2 -2.5
v 0.5 3 -2.5
v 0.5 6 -2.5
v 0.5 7 -2.5
v 1.5 2 -2.5
v 1.5 3 -2.5
v 1.5 6 -2.5
v 1.5 7 -2.5
v -1.5 3 -3.5
v -1.5 6 -3.5
v -0.5 3 -3.5
v -0.5 6 -3.5
v 0.5 3 -3.5
v 0.5 6 -3.5
v 1.5 3 -3.5
v 1.5 6 -3.5
v -1.5 3 3.5
v -1.5 6 3.5
v -0.5 3 3.5
v -0.5 6 3.5
v 0.5 3 3.5
v 0.5 6 3.5
v 1.5 3 3.5
v 1.5 6 3.5
v -1.5 2 2.5
v -1.5 3 2.5
v -1.5 6 2.5
v -1.5 7 2.5
v -0.5 2 2.5
v -0.5 3 2.5
v -0.5 6 2.5
v -0.5 7 2.5
v 0.5 2 2.5
v 0.5 3 2.5
v 0.5 6 2.5
v 0.5 7 2.5
v 1.5 2 2.5
v 1.5 3 2.5
v 1.5 6 2.5
v 1.5 7 2.5
v -1.5 1 1.5
v -1.5 2 1.5
v -1.5 7 1.5
v -1.5 8 1.5
v -0.5 1 1.5
v -0.5 2 1.5
v -0.5 3 1.5
v -0.5 7 1.5
v -0.5 8 1.5
v 0.5 1 1.5
v 0.5 2 1.5
v 0.5 3 1.5
v 0.5 7 1.5
v 0.5 8 1.5
v 1.5 1 1.5
v 1.5 2 1.5
v 1.5 7 1.5
v 1.5 8 1.5
v -0.5 3 0.5
v -0.5 7 0.5
v 0.5 3 0.5
v 0.5 7 0.5
v -1.5 0 -1.5
v -1.5 1 -1.5
v -1.5 8 -1.5
v -1.5 9 -1.5
v 1.5 0 -1.5
v 1.5 1 -1.5
v 1.5 8 -1.5
v 1.5 9 -1.5
v -1.5 1 -3.5
v -1.5 3 -3.5
v -1.5 6 -3.5
v -1.5 8 -3.5
v 1.5 1 -3.5
v 1.5 3 -3.5
v 1.5 6 -3.5
v 1.5 8 -3.5
v -1.5 3 -4.5
v -1.5 6 -4.5
v 1.5 3 -4.5
v 1.5 6 -4.5
v -1.5 0 1.5
v 1.5 0 1.5
v -1.5 0 -1.5
v 1.5 0 -1.5
v -1.5 1 3.5
v 1.5 1 3.5
v -1.5 1 1.5
v 1.5 1 1.5
v -1.5 1 -1.5
v 1.5 1 -1.5
v -1.5 1 -3.5
v 1.5 1 -3.5
v -1.5 3 4.5
v 1.5 3 4.5
v -1.5 3 3.5
v 1.5 3 3.5
v -0.5 3 1.5
v 0.5 3 1.5
v -0.5 3 0.5
v 0.5 3 0.5
v -0.5 3 -0.5
v 0.5 3 -0.5
v -0.5 3 -1.5
v 0.5 3 -1.5
v -1.5 3 -3.5
v 1.5 3 -3.5
v -1.5 3 -4.5
v 1.5 3 -4.5
v -1.5 6 3.5
v -0.5 6 3.5
v 0.5 6 3.5
v 1.5 6 3.5
v -1.5 6 2.5
v -0.5 6 2.5
v 0.5 6 2.5
v 1.5 6 2.5
v -1.5 6 -2.5
v -0.5 6 -2.5
v 0.5 6 -2.5
v 1.5 6 -2.5
v -1.5 6 -3.5
v -0.5 6 -3.5
v 0.5 6 -3.5
v 1.5 6 -3.5
v -1.5 7 2.5
v -0.5 7 2.5
v 0.5 7 2.5
v 1.5 7 2.5
v -1.5 7 1.5
v -0.5 7 1.5
v 0.5 7 1.5
v 1.5 7 1.5
v -0.5 7 0.5
v 0.5 7 0.5
v -1.5 7 -1.5
v -0.5 7 -1.5
v 0.5 7 -1.5
v 1.5 7 -1.5
v -1.5 7 -2.5
v -0.5 7 -2.5
v 0.5 7 -2.5
v 1.5 7 -2.5
v -1.5 8 1.5
v -0.5 8 1.5
v 0.5 8 1.5
v 1.5 8 1.5
v -1.5 8 -1.5
v -0.5 8 -1.5
v 0.5 8 -1.5
v 1.5 8 -1.5
v -1.5 1 1.5
v -0.5 1 1.5
v 0.5 1 1.5
v 1.5 1 1.5
v -1.5 1 -1.5
v -0.5 1 -1.5
v 0.5 1 -1.5
v 1.5 1 -1.5
v -1.5 2 2.5
v -0.5 2 2.5
v 0.5 2 2.5
v 1.5 2 2.5
v -1.5 2 1.5
v -0.5 2 1.5
v 0.5 2 1.5
v 1.5 2 1.5
v -1.5 2 -1.5
v -0.5 2 -1.5
v 0.5 2 -1.5
v 1.5 2 -1.5
v -1.5 2 -2.5
v -0.5 2 -2.5
v 0.5 2 -2.5
v 1.5 2 -2.5
v -1.5 3 3.5
v -0.5 3 3.5
v 0.5 3 3.5
v 1.5 3 3.5
v -1.5 3 2.5
v -0.5 3 2.5
v 0.5 3 2.5
v 1.5 3 2.5
v -1.5 3 -2.5
v -0.5 3 -2.5
v 0.5 3 -2.5
v 1.5 3 -2.5
v -1.5 3 -3.5
v -0.5 3 -3.5
v 0.5 3 -3.5
v 1.5 3 -3.5
v -1.5 6 4.5
v 1.5 6 4.5
v -1.5 6 3.5
v 1.5 6 3.5
v -0.5 6 -0.5
v 0.5 6 -0.5
v -0.5 6 -1.5
v 0.5 6 -1.5
v -1.5 6 -3.5
v 1.5 6 -3.5
v -1.5 6 -4.5
v 1.5 6 -4.5
v -1.5 8 3.5
v 1.5 8 3.5
v -1.5 8 1.5
v 1.5 8 1.5
v -1.5 8 -1.5
v 1.5 8 -1.5
v -1.5 8 -3.5
v 1.5 8 -3.5
v -1.5 9 1.5
v 1.5 9 1.5
v -1.5 9 -1.5
v 1.5 9 -1.5

# faces
f 4/1/1 2/1/1 1/1/1
f 5/1/1 2/1/1 4/1/1
f 7/1/1 4/1/1 3/1/1
f 8/1/1 4/1/1 7/1/1
f 9/1/1 6/1/1 5/1/1
f 10/1/1 6/1/1 9/1/1
f 12/1/1 7/1/1 3/1/1
f 13/1/1 7/1/1 12/1/1
f 14/1/1 6/1/1 10/1/1
f 15/1/1 6/1/1 14/1/1
f 17/1/1 12/1/1 11/1/1
f 18/1/1 12/1/1 17/1/1
f 21/1/1 16/1/1 15/1/1
f 22/1/1 16/1/1 21/1/1
f 23/1/1 19/1/1 18/1/1
f 26/1/1 21/1/1 20/1/1
f 27/1/1 24/1/1 23/1/1
f 27/1/1 23/1/1 18/1/1
f 28/1/1 24/1/1 27/1/1
f 29/1/1 26/1/1 25/1/1
f 30/1/1 21/1/1 26/1/1
f 30/1/1 26/1/1 29/1/1
f 31/1/1 29/1/1 28/1/1
f 32/1/1 29/1/1 31/1/1
f 36/1/1 34/1/1 33/1/1
f 37/1/1 34/1/1 36/1/1
f 40/1/1 36/1/1 35/1/1
f 41/1/1 36/1/1 40/1/1
f 44/1/1 38/1/1 37/1/1
f 45/1/1 38/1/1 44/1/1
f 47/1/1 42/1/1 41/1/1
f 47/1/1 40/1/1 39/1/1
f 47/1/1 41/1/1 40/1/1
f 48/1/1 42/1/1 47/1/1
f 49/1/1 46/1/1 45/1/1
f 49/1/1 45/1/1 44/1/1
f 49/1/1 44/1/1 43/1/1
f 50/1/1 46/1/1 49/1/1
f 51/1/1 46/1/1 50/1/1
f 52/1/1 46/1/1 51/1/1
f 53/1/1 42/1/1 48/1/1
f 54/1/1 42/1/1 53/1/1
f 55/1/1 42/1/1 54/1/1
f 56/1/1 51/1/1 50/1/1
f 57/1/1 51/1/1 56/1/1
f 58/1/1 55/1/1 54/1/1
f 58/1/1 56/1/1 55/1/1
f 59/1/1 56/1/1 58/1/1
f 60/1/2 61/1/2 63/1/2
f 63/1/2 61/1/2 64/1/2
f 62/1/2 63/1/2 67/1/2
f 67/1/2 63/1/2 68/1/2
f 64/1/2 65/1/2 71/1/2
f 71/1/2 65/1/2 72/1/2
f 68/1/2 69/1/2 74/1/2
f 66/1/2 67/1/2 74/1/2
f 67/1/2 68/1/2 74/1/2
f 74/1/2 69/1/2 75/1/2
f 72/1/2 73/1/2 76/1/2
f 71/1/2 72/1/2 76/1/2
f 70/1/2 71/1/2 76/1/2
f 76/1/2 73/1/2 77/1/2
f 77/1/2 73/1/2 78/1/2
f 78/1/2 73/1/2 79/1/2
f 75/1/2 69/1/2 80/1/2
f 80/1/2 69/1/2 81/1/2
f 81/1/2 69/1/2 82/1/2
f 77/1/2 78/1/2 83/1/2
f 83/1/2 78/1/2 84/1/2
f 81/1/2 82/1/2 85/1/2
f 82/1/2 83/1/2 85/1/2
f 85/1/2 83/1/2 86/1/2
f 87/1/2 88/1/2 90/1/2
f 90/1/2 88/1/2 91/1/2
f 89/1/2 90/1/2 93/1/2
f 93/1/2 90/1/2 94/1/2
f 91/1/2 92/1/2 95/1/2
f 95/1/2 92/1/2 96/1/2
f 89/1/2 93/1/2 98/1/2
f 98/1/2 93/1/2 99/1/2
f 96/1/2 92/1/2 100/1/2
f 100/1/2 92/1/2 101/1/2
f 97/1/2 98/1/2 103/1/2
f 103/1/2 98/1/2 104/1/2
f 101/1/2 102/1/2 107/1/2
f 107/1/2 102/1/2 108/1/2
f 104/1/2 105/1/2 109/1/2
f 106/1/2 107/1/2 112/1/2
f 109/1/2 110/1/2 113/1/2
f 104/1/2 109/1/2 113/1/2
f 113/1/2 110/1/2 114/1/2
f 111/1/2 112/1/2 115/1/2
f 112/1/2 107/1/2 116/1/2
f 115/1/2 112/1/2 116/1/2
f 114/1/2 115/1/2 117/1/2
f 117/1/2 115/1/2 118/1/2
f 121/1/3 120/1/3 119/1/3
f 122/1/3 120/1/3 121/1/3
f 127/1/3 124/1/3 123/1/3
f 128/1/3 124/1/3 127/1/3
f 129/1/3 126/1/3 125/1/3
f 130/1/3 126/1/3 129/1/3
f 135/1/3 132/1/3 131/1/3
f 136/1/3 132/1/3 135/1/3
f 137/1/3 134/1/3 133/1/3
f 138/1/3 134/1/3 137/1/3
f 141/1/3 140/1/3 139/1/3
f 142/1/3 140/1/3 141/1/3
f 147/1/3 144/1/3 143/1/3
f 148/1/3 144/1/3 147/1/3
f 151/1/3 146/1/3 145/1/3
f 152/1/3 146/1/3 151/1/3
f 154/1/3 149/1/3 148/1/3
f 155/1/3 149/1/3 154/1/3
f 156/1/3 151/1/3 150/1/3
f 157/1/3 151/1/3 156/1/3
f 159/1/3 154/1/3 153/1/3
f 160/1/3 154/1/3 159/1/3
f 161/1/3 158/1/3 157/1/3
f 162/1/3 158/1/3 161/1/3
f 167/1/3 164/1/3 163/1/3
f 168/1/3 164/1/3 167/1/3
f 169/1/3 166/1/3 165/1/3
f 170/1/3 166/1/3 169/1/3
f 175/1/3 172/1/3 171/1/3
f 176/1/3 172/1/3 175/1/3
f 177/1/3 174/1/3 173/1/3
f 178/1/3 174/1/3 177/1/3
f 181/1/3 180/1/3 179/1/3
f 182/1/3 180/1/3 181/1/3
f 185/1/3 184/1/3 183/1/3
f 186/1/3 184/1/3 185/1/3
f 187/1/4 188/1/4 189/1/4
f 189/1/4 188/1/4 190/1/4
f 191/1/4 192/1/4 193/1/4
f 193/1/4 192/1/4 194/1/4
f 195/1/4 196/1/4 199/1/4
f 199/1/4 196/1/4 200/1/4
f 197/1/4 198/1/4 201/1/4
f 201/1/4 198/1/4 202/1/4
f 203/1/4 204/1/4 207/1/4
f 207/1/4 204/1/4 208/1/4
f 205/1/4 206/1/4 209/1/4
f 209/1/4 206/1/4 210/1/4
f 211/1/4 212/1/4 215/1/4
f 215/1/4 212/1/4 216/1/4
f 213/1/4 214/1/4 218/1/4
f 218/1/4 214/1/4 219/1/4
f 216/1/4 217/1/4 221/1/4
f 221/1/4 217/1/4 222/1/4
f 220/1/4 221/1/4 225/1/4
f 225/1/4 221/1/4 226/1/4
f 223/1/4 224/1/4 227/1/4
f 227/1/4 224/1/4 228/1/4
f 229/1/4 230/1/4 231/1/4
f 231/1/4 230/1/4 232/1/4
f 233/1/4 234/1/4 237/1/4
f 237/1/4 234/1/4 238/1/4
f 235/1/4 236/1/4 239/1/4
f 239/1/4 236/1/4 240/1/4
f 241/1/4 242/1/4 245/1/4
f 245/1/4 242/1/4 246/1/4
f 243/1/4 244/1/4 247/1/4
f 247/1/4 244/1/4 248/1/4
f 249/1/4 250/1/4 251/1/4
f 251/1/4 250/1/4 252/1/4
f 255/1/5 254/1/5 253/1/5
f 256/1/5 254/1/5 255/1/5
f 259/1/5 258/1/5 257/1/5
f 260/1/5 258/1/5 259/1/5
f 263/1/5 262/1/5 261/1/5
f 264/1/5 262/1/5 263/1/5
f 267/1/5 266/1/5 265/1/5
f 268/1/5 266/1/5 267/1/5
f 271/1/5 270/1/5 269/1/5
f 272/1/5 270/1/5 271/1/5
f 275/1/5 274/1/5 273/1/5
f 276/1/5 274/1/5 275/1/5
f 279/1/5 278/1/5 277/1/5
f 280/1/5 278/1/5 279/1/5
f 285/1/5 282/1/5 281/1/5
f 286/1/5 282/1/5 285/1/5
f 287/1/5 284/1/5 283/1/5
f 288/1/5 284/1/5 287/1/5
f 293/1/5 290/1/5 289/1/5
f 294/1/5 290/1/5 293/1/5
f 295/1/5 292/1/5 291/1/5
f 296/1/5 292/1/5 295/1/5
f 301/1/5 298/1/5 297/1/5
f 302/1/5 298/1/5 301/1/5
f 303/1/5 300/1/5 299/1/5
f 304/1/5 300/1/5 303/1/5
f 308/1/5 306/1/5 305/1/5
f 309/1/5 306/1/5 308/1/5
f 311/1/5 308/1/5 307/1/5
f 312/1/5 308/1/5 311/1/5
f 313/1/5 310/1/5 309/1/5
f 314/1/5 310/1/5 313/1/5
f 319/1/5 316/1/5 315/1/5
f 320/1/5 316/1/5 319/1/5
f 321/1/5 318/1/5 317/1/5
f 322/1/5 318/1/5 321/1/5
f 323/1/6 324/1/6 327/1/6
f 327/1/6 324/1/6 328/1/6
f 325/1/6 326/1/6 329/1/6
f 329/1/6 326/1/6 330/1/6
f 331/1/6 332/1/6 335/1/6
f 335/1/6 332/1/6 336/1/6
f 333/1/6 334/1/6 337/1/6
f 337/1/6 334/1/6 338/1/6
f 336/1/6 337/1/6 340/1/6
f 340/1/6 337/1/6 341/1/6
f 339/1/6 340/1/6 343/1/6
f 343/1/6 340/1/6 344/1/6
f 341/1/6 342/1/6 345/1/6
f 345/1/6 342/1/6 346/1/6
f 347/1/6 348/1/6 351/1/6
f 351/1/6 348/1/6 352/1/6
f 349/1/6 350/1/6 353/1/6
f 353/1/6 350/1/6 354/1/6
f 355/1/6 356/1/6 359/1/6
f 359/1/6 356/1/6 360/1/6
f 357/1/6 358/1/6 361/1/6
f 361/1/6 358/1/6 362/1/6
f 363/1/6 364/1/6 365/1/6
f 365/1/6 364/1/6 366/1/6
f 367/1/6 368/1/6 369/1/6
f 369/1/6 368/1/6 370/1/6
f 371/1/6 372/1/6 373/1/6
f 373/1/6 372/1/6 374/1/6
f 375/1/6 376/1/6 377/1/6
f 377/1/6 376/1/6 378/1/6
f 379/1/6 380/1/6 381/1/6
f 381/1/6 380/1/6 382/1/6
f 383/1/6 384/1/6 385/1/6
f 385/1/6 384/1/6 386/1/6
