# MagicaVoxel @ Ephtracy

# group
g monk

# material
mtllib monk.mtl
usemtl palette

# normals
vn -1 0 0
vn 1 0 0
vn 0 0 1
vn 0 0 -1
vn 0 -1 0
vn 0 1 0

# texcoords
vt 0.0136719 0.5
vt 0.841797 0.5
vt 0.970703 0.5
vt 0.978516 0.5
vt 0.990234 0.5
vt 0.994141 0.5

# verts
v -4.5 4 3.5
v -4.5 4 1.5
v -4.5 5 4.5
v -4.5 5 3.5
v -4.5 5 1.5
v -4.5 5 -2.5
v -4.5 7 -1.5
v -4.5 7 -2.5
v -4.5 8 4.5
v -4.5 8 2.5
v -4.5 8 0.5
v -4.5 8 -1.5
v -4.5 9 2.5
v -4.5 9 0.5
v -3.5 1 1.5
v -3.5 1 -0.5
v -3.5 3 3.5
v -3.5 3 1.5
v -3.5 4 4.5
v -3.5 4 3.5
v -3.5 4 1.5
v -3.5 4 -0.5
v -3.5 4 -2.5
v -3.5 5 4.5
v -3.5 5 3.5
v -3.5 5 1.5
v -3.5 5 -2.5
v -3.5 5 -3.5
v -3.5 7 -1.5
v -3.5 7 -2.5
v -3.5 8 4.5
v -3.5 8 2.5
v -3.5 8 0.5
v -3.5 8 -1.5
v -3.5 8 -2.5
v -3.5 8 -3.5
v -3.5 9 4.5
v -3.5 9 2.5
v -3.5 9 0.5
v -3.5 9 -0.5
v -3.5 9 -2.5
v -3.5 10 2.5
v -3.5 10 -0.5
v -2.5 0 2.5
v -2.5 0 -1.5
v -2.5 1 1.5
v -2.5 1 -0.5
v -2.5 3 4.5
v -2.5 3 3.5
v -2.5 3 2.5
v -2.5 3 1.5
v -2.5 4 4.5
v -2.5 4 3.5
v -2.5 4 -0.5
v -2.5 4 -1.5
v -2.5 4 -2.5
v -2.5 4 -4.5
v -2.5 5 -2.5
v -2.5 5 -3.5
v -2.5 7 -3.5
v -2.5 7 -4.5
v -2.5 8 -2.5
v -2.5 8 -3.5
v -2.5 9 4.5
v -2.5 9 2.5
v -2.5 9 -0.5
v -2.5 9 -2.5
v -2.5 10 4.5
v -2.5 10 3.5
v -2.5 10 2.5
v -2.5 10 -0.5
v -2.5 10 -1.5
v -2.5 10 -3.5
v -2.5 11 3.5
v -2.5 11 -1.5
v -1.5 2 -2.5
v -1.5 2 -3.5
v -1.5 3 -3.5
v -1.5 3 -4.5
v -1.5 4 -2.5
v -1.5 4 -4.5
v -1.5 7 -3.5
v -1.5 7 -4.5
v -1.5 10 4.5
v -1.5 10 3.5
v -1.5 10 -1.5
v -1.5 10 -2.5
v -1.5 10 -3.5
v -1.5 10 -4.5
v -1.5 11 4.5
v -1.5 11 3.5
v -1.5 11 2.5
v -1.5 11 -0.5
v -1.5 11 -1.5
v -1.5 11 -2.5
v -1.5 12 2.5
v -1.5 12 -0.5
v -0.5 10 -2.5
v -0.5 10 -3.5
v -0.5 11 3.5
v -0.5 11 2.5
v -0.5 11 -0.5
v -0.5 11 -1.5
v -0.5 11 -2.5
v -0.5 11 -3.5
v -0.5 12 3.5
v -0.5 12 2.5
v -0.5 12 -0.5
v -0.5 12 -1.5
v 0.5 0 2.5
v 0.5 0 -1.5
v 0.5 2 2.5
v 0.5 2 -1.5
v 1.5 9 4.5
v 1.5 9 2.5
v 1.5 10 4.5
v 1.5 10 2.5
v 2.5 4 4.5
v 2.5 4 2.5
v 2.5 5 4.5
v 2.5 5 2.5
v 2.5 7 4.5
v 2.5 7 2.5
v 2.5 9 4.5
v 2.5 9 2.5
v 3.5 5 4.5
v 3.5 5 2.5
v 3.5 7 4.5
v 3.5 7 2.5
v -3.5 5 4.5
v -3.5 5 2.5
v -3.5 7 4.5
v -3.5 7 2.5
v -2.5 4 4.5
v -2.5 4 2.5
v -2.5 5 4.5
v -2.5 5 2.5
v -2.5 7 4.5
v -2.5 7 2.5
v -2.5 9 4.5
v -2.5 9 2.5
v -1.5 9 4.5
v -1.5 9 2.5
v -1.5 10 4.5
v -1.5 10 2.5
v -0.5 0 2.5
v -0.5 0 -1.5
v -0.5 2 2.5
v -0.5 2 -1.5
v 0.5 10 -2.5
v 0.5 10 -3.5
v 0.5 11 3.5
v 0.5 11 2.5
v 0.5 11 -0.5
v 0.5 11 -1.5
v 0.5 11 -2.5
v 0.5 11 -3.5
v 0.5 12 3.5
v 0.5 12 2.5
v 0.5 12 -0.5
v 0.5 12 -1.5
v 1.5 2 -2.5
v 1.5 2 -3.5
v 1.5 3 -3.5
v 1.5 3 -4.5
v 1.5 4 -2.5
v 1.5 4 -4.5
v 1.5 7 -3.5
v 1.5 7 -4.5
v 1.5 10 4.5
v 1.5 10 3.5
v 1.5 10 -1.5
v 1.5 10 -2.5
v 1.5 10 -3.5
v 1.5 10 -4.5
v 1.5 11 4.5
v 1.5 11 3.5
v 1.5 11 2.5
v 1.5 11 -0.5
v 1.5 11 -1.5
v 1.5 11 -2.5
v 1.5 12 2.5
v 1.5 12 -0.5
v 2.5 0 2.5
v 2.5 0 -1.5
v 2.5 1 1.5
v 2.5 1 -0.5
v 2.5 3 4.5
v 2.5 3 3.5
v 2.5 3 2.5
v 2.5 3 1.5
v 2.5 4 4.5
v 2.5 4 3.5
v 2.5 4 -0.5
v 2.5 4 -1.5
v 2.5 4 -2.5
v 2.5 4 -4.5
v 2.5 5 -2.5
v 2.5 5 -3.5
v 2.5 7 -3.5
v 2.5 7 -4.5
v 2.5 8 -2.5
v 2.5 8 -3.5
v 2.5 9 4.5
v 2.5 9 2.5
v 2.5 9 -0.5
v 2.5 9 -2.5
v 2.5 10 4.5
v 2.5 10 3.5
v 2.5 10 2.5
v 2.5 10 -0.5
v 2.5 10 -1.5
v 2.5 10 -3.5
v 2.5 11 3.5
v 2.5 11 -1.5
v 3.5 1 1.5
v 3.5 1 -0.5
v 3.5 3 3.5
v 3.5 3 1.5
v 3.5 4 4.5
v 3.5 4 3.5
v 3.5 4 1.5
v 3.5 4 -0.5
v 3.5 4 -2.5
v 3.5 5 4.5
v 3.5 5 3.5
v 3.5 5 1.5
v 3.5 5 -2.5
v 3.5 5 -3.5
v 3.5 7 -1.5
v 3.5 7 -2.5
v 3.5 8 4.5
v 3.5 8 2.5
v 3.5 8 0.5
v 3.5 8 -1.5
v 3.5 8 -2.5
v 3.5 8 -3.5
v 3.5 9 4.5
v 3.5 9 2.5
v 3.5 9 0.5
v 3.5 9 -0.5
v 3.5 9 -2.5
v 3.5 10 2.5
v 3.5 10 -0.5
v 4.5 4 3.5
v 4.5 4 1.5
v 4.5 5 4.5
v 4.5 5 3.5
v 4.5 5 1.5
v 4.5 5 -2.5
v 4.5 7 -1.5
v 4.5 7 -2.5
v 4.5 8 4.5
v 4.5 8 2.5
v 4.5 8 0.5
v 4.5 8 -1.5
v 4.5 9 2.5
v 4.5 9 0.5
v -4.5 5 4.5
v -4.5 8 4.5
v -3.5 4 4.5
v -3.5 5 4.5
v -3.5 7 4.5
v -3.5 8 4.5
v -3.5 9 4.5
v -2.5 3 4.5
v -2.5 4 4.5
v -2.5 5 4.5
v -2.5 7 4.5
v -2.5 9 4.5
v -2.5 10 4.5
v -1.5 9 4.5
v -1.5 10 4.5
v -1.5 11 4.5
v 1.5 9 4.5
v 1.5 10 4.5
v 1.5 11 4.5
v 2.5 3 4.5
v 2.5 4 4.5
v 2.5 5 4.5
v 2.5 7 4.5
v 2.5 9 4.5
v 2.5 10 4.5
v 3.5 4 4.5
v 3.5 5 4.5
v 3.5 7 4.5
v 3.5 8 4.5
v 3.5 9 4.5
v 4.5 5 4.5
v 4.5 8 4.5
v -4.5 4 3.5
v -4.5 5 3.5
v -3.5 3 3.5
v -3.5 4 3.5
v -3.5 5 3.5
v -2.5 3 3.5
v -2.5 4 3.5
v -2.5 10 3.5
v -2.5 11 3.5
v -1.5 10 3.5
v -1.5 11 3.5
v -0.5 11 3.5
v -0.5 12 3.5
v 0.5 11 3.5
v 0.5 12 3.5
v 1.5 10 3.5
v 1.5 11 3.5
v 2.5 3 3.5
v 2.5 4 3.5
v 2.5 10 3.5
v 2.5 11 3.5
v 3.5 3 3.5
v 3.5 4 3.5
v 3.5 5 3.5
v 4.5 4 3.5
v 4.5 5 3.5
v -4.5 8 2.5
v -4.5 9 2.5
v -3.5 5 2.5
v -3.5 7 2.5
v -3.5 8 2.5
v -3.5 9 2.5
v -3.5 10 2.5
v -2.5 0 2.5
v -2.5 3 2.5
v -2.5 4 2.5
v -2.5 5 2.5
v -2.5 7 2.5
v -2.5 9 2.5
v -2.5 10 2.5
v -1.5 7 2.5
v -1.5 8 2.5
v -1.5 9 2.5
v -1.5 10 2.5
v -1.5 11 2.5
v -1.5 12 2.5
v -0.5 0 2.5
v -0.5 2 2.5
v -0.5 7 2.5
v -0.5 8 2.5
v -0.5 11 2.5
v -0.5 12 2.5
v 0.5 0 2.5
v 0.5 2 2.5
v 0.5 7 2.5
v 0.5 8 2.5
v 0.5 11 2.5
v 0.5 12 2.5
v 1.5 7 2.5
v 1.5 8 2.5
v 1.5 9 2.5
v 1.5 10 2.5
v 1.5 11 2.5
v 1.5 12 2.5
v 2.5 0 2.5
v 2.5 3 2.5
v 2.5 4 2.5
v 2.5 5 2.5
v 2.5 7 2.5
v 2.5 9 2.5
v 2.5 10 2.5
v 3.5 5 2.5
v 3.5 7 2.5
v 3.5 8 2.5
v 3.5 9 2.5
v 3.5 10 2.5
v 4.5 8 2.5
v 4.5 9 2.5
v -3.5 1 1.5
v -3.5 3 1.5
v -2.5 1 1.5
v -2.5 3 1.5
v 2.5 1 1.5
v 2.5 3 1.5
v 3.5 1 1.5
v 3.5 3 1.5
v -1.5 2 -2.5
v -1.5 4 -2.5
v 1.5 2 -2.5
v 1.5 4 -2.5
v -4.5 4 1.5
v -4.5 5 1.5
v -3.5 4 1.5
v -3.5 5 1.5
v 3.5 4 1.5
v 3.5 5 1.5
v 4.5 4 1.5
v 4.5 5 1.5
v -4.5 8 0.5
v -4.5 9 0.5
v -3.5 8 0.5
v -3.5 9 0.5
v 3.5 8 0.5
v 3.5 9 0.5
v 4.5 8 0.5
v 4.5 9 0.5
v -3.5 1 -0.5
v -3.5 4 -0.5
v -3.5 9 -0.5
v -3.5 10 -0.5
v -2.5 1 -0.5
v -2.5 4 -0.5
v -2.5 9 -0.5
v -2.5 10 -0.5
v -1.5 11 -0.5
v -1.5 12 -0.5
v -0.5 11 -0.5
v -0.5 12 -0.5
v 0.5 11 -0.5
v 0.5 12 -0.5
v 1.5 11 -0.5
v 1.5 12 -0.5
v 2.5 1 -0.5
v 2.5 4 -0.5
v 2.5 9 -0.5
v 2.5 10 -0.5
v 3.5 1 -0.5
v 3.5 4 -0.5
v 3.5 9 -0.5
v 3.5 10 -0.5
v -4.5 7 -1.5
v -4.5 8 -1.5
v -3.5 7 -1.5
v -3.5 8 -1.5
v -2.5 0 -1.5
v -2.5 4 -1.5
v -2.5 10 -1.5
v -2.5 11 -1.5
v -1.5 10 -1.5
v -1.5 11 -1.5
v -0.5 0 -1.5
v -0.5 2 -1.5
v -0.5 11 -1.5
v -0.5 12 -1.5
v 0.5 0 -1.5
v 0.5 2 -1.5
v 0.5 11 -1.5
v 0.5 12 -1.5
v 1.5 10 -1.5
v 1.5 11 -1.5
v 2.5 0 -1.5
v 2.5 4 -1.5
v 2.5 10 -1.5
v 2.5 11 -1.5
v 3.5 7 -1.5
v 3.5 8 -1.5
v 4.5 7 -1.5
v 4.5 8 -1.5
v -4.5 5 -2.5
v -4.5 7 -2.5
v -3.5 4 -2.5
v -3.5 5 -2.5
v -3.5 7 -2.5
v -3.5 8 -2.5
v -3.5 9 -2.5
v -2.5 4 -2.5
v -2.5 5 -2.5
v -2.5 8 -2.5
v -2.5 9 -2.5
v -1.5 10 -2.5
v -1.5 11 -2.5
v -0.5 10 -2.5
v -0.5 11 -2.5
v 0.5 10 -2.5
v 0.5 11 -2.5
v 1.5 10 -2.5
v 1.5 11 -2.5
v 2.5 4 -2.5
v 2.5 5 -2.5
v 2.5 8 -2.5
v 2.5 9 -2.5
v 3.5 4 -2.5
v 3.5 5 -2.5
v 3.5 7 -2.5
v 3.5 8 -2.5
v 3.5 9 -2.5
v 4.5 5 -2.5
v 4.5 7 -2.5
v -3.5 5 -3.5
v -3.5 8 -3.5
v -2.5 5 -3.5
v -2.5 7 -3.5
v -2.5 8 -3.5
v -2.5 10 -3.5
v -1.5 2 -3.5
v -1.5 3 -3.5
v -1.5 7 -3.5
v -1.5 10 -3.5
v -0.5 10 -3.5
v -0.5 11 -3.5
v 0.5 10 -3.5
v 0.5 11 -3.5
v 1.5 2 -3.5
v 1.5 3 -3.5
v 1.5 7 -3.5
v 1.5 10 -3.5
v 2.5 5 -3.5
v 2.5 7 -3.5
v 2.5 8 -3.5
v 2.5 10 -3.5
v 3.5 5 -3.5
v 3.5 8 -3.5
v -2.5 4 -4.5
v -2.5 7 -4.5
v -1.5 3 -4.5
v -1.5 4 -4.5
v -1.5 7 -4.5
v -1.5 10 -4.5
v 1.5 3 -4.5
v 1.5 4 -4.5
v 1.5 7 -4.5
v 1.5 10 -4.5
v 2.5 4 -4.5
v 2.5 7 -4.5
v -2.5 0 2.5
v -0.5 0 2.5
v 0.5 0 2.5
v 2.5 0 2.5
v -2.5 0 -1.5
v -0.5 0 -1.5
v 0.5 0 -1.5
v 2.5 0 -1.5
v -3.5 1 1.5
v -2.5 1 1.5
v 2.5 1 1.5
v 3.5 1 1.5
v -3.5 1 -0.5
v -2.5 1 -0.5
v 2.5 1 -0.5
v 3.5 1 -0.5
v -0.5 2 2.5
v 0.5 2 2.5
v -0.5 2 -1.5
v 0.5 2 -1.5
v -1.5 2 -2.5
v 1.5 2 -2.5
v -1.5 2 -3.5
v 1.5 2 -3.5
v -2.5 3 4.5
v 2.5 3 4.5
v -3.5 3 3.5
v -2.5 3 3.5
v 2.5 3 3.5
v 3.5 3 3.5
v -2.5 3 2.5
v 2.5 3 2.5
v -3.5 3 1.5
v -2.5 3 1.5
v 2.5 3 1.5
v 3.5 3 1.5
v -1.5 3 -3.5
v 1.5 3 -3.5
v -1.5 3 -4.5
v 1.5 3 -4.5
v -3.5 4 4.5
v -2.5 4 4.5
v 2.5 4 4.5
v 3.5 4 4.5
v -4.5 4 3.5
v -3.5 4 3.5
v -2.5 4 3.5
v 2.5 4 3.5
v 3.5 4 3.5
v 4.5 4 3.5
v -4.5 4 1.5
v -3.5 4 1.5
v 3.5 4 1.5
v 4.5 4 1.5
v -3.5 4 -0.5
v -2.5 4 -0.5
v 2.5 4 -0.5
v 3.5 4 -0.5
v -2.5 4 -1.5
v 2.5 4 -1.5
v -3.5 4 -2.5
v -2.5 4 -2.5
v -1.5 4 -2.5
v 1.5 4 -2.5
v 2.5 4 -2.5
v 3.5 4 -2.5
v -2.5 4 -4.5
v -1.5 4 -4.5
v 1.5 4 -4.5
v 2.5 4 -4.5
v -4.5 5 4.5
v -3.5 5 4.5
v 3.5 5 4.5
v 4.5 5 4.5
v -4.5 5 3.5
v -3.5 5 3.5
v 3.5 5 3.5
v 4.5 5 3.5
v -4.5 5 1.5
v -3.5 5 1.5
v 3.5 5 1.5
v 4.5 5 1.5
v -4.5 5 -2.5
v -3.5 5 -2.5
v -2.5 5 -2.5
v 2.5 5 -2.5
v 3.5 5 -2.5
v 4.5 5 -2.5
v -3.5 5 -3.5
v -2.5 5 -3.5
v 2.5 5 -3.5
v 3.5 5 -3.5
v -3.5 7 4.5
v -2.5 7 4.5
v 2.5 7 4.5
v 3.5 7 4.5
v -3.5 7 2.5
v -2.5 7 2.5
v 2.5 7 2.5
v 3.5 7 2.5
v -2.5 9 4.5
v -1.5 9 4.5
v 1.5 9 4.5
v 2.5 9 4.5
v -2.5 9 2.5
v -1.5 9 2.5
v 1.5 9 2.5
v 2.5 9 2.5
v -1.5 10 4.5
v 1.5 10 4.5
v -1.5 10 2.5
v 1.5 10 2.5
v -2.5 4 4.5
v 2.5 4 4.5
v -2.5 4 2.5
v 2.5 4 2.5
v -3.5 5 4.5
v -2.5 5 4.5
v 2.5 5 4.5
v 3.5 5 4.5
v -3.5 5 2.5
v -2.5 5 2.5
v 2.5 5 2.5
v 3.5 5 2.5
v -4.5 7 -1.5
v -3.5 7 -1.5
v 3.5 7 -1.5
v 4.5 7 -1.5
v -4.5 7 -2.5
v -3.5 7 -2.5
v 3.5 7 -2.5
v 4.5 7 -2.5
v -2.5 7 -3.5
v -1.5 7 -3.5
v 1.5 7 -3.5
v 2.5 7 -3.5
v -2.5 7 -4.5
v -1.5 7 -4.5
v 1.5 7 -4.5
v 2.5 7 -4.5
v -4.5 8 4.5
v -3.5 8 4.5
v 3.5 8 4.5
v 4.5 8 4.5
v -4.5 8 2.5
v -3.5 8 2.5
v 3.5 8 2.5
v 4.5 8 2.5
v -4.5 8 0.5
v -3.5 8 0.5
v 3.5 8 0.5
v 4.5 8 0.5
v -4.5 8 -1.5
v -3.5 8 -1.5
v 3.5 8 -1.5
v 4.5 8 -1.5
v -3.5 8 -2.5
v -2.5 8 -2.5
v 2.5 8 -2.5
v 3.5 8 -2.5
v -3.5 8 -3.5
v -2.5 8 -3.5
v 2.5 8 -3.5
v 3.5 8 -3.5
v -3.5 9 4.5
v -2.5 9 4.5
v 2.5 9 4.5
v 3.5 9 4.5
v -4.5 9 2.5
v -3.5 9 2.5
v -2.5 9 2.5
v 2.5 9 2.5
v 3.5 9 2.5
v 4.5 9 2.5
v -4.5 9 0.5
v -3.5 9 0.5
v 3.5 9 0.5
v 4.5 9 0.5
v -3.5 9 -0.5
v -2.5 9 -0.5
v 2.5 9 -0.5
v 3.5 9 -0.5
v -3.5 9 -2.5
v -2.5 9 -2.5
v 2.5 9 -2.5
v 3.5 9 -2.5
v -2.5 10 4.5
v -1.5 10 4.5
v 1.5 10 4.5
v 2.5 10 4.5
v -2.5 10 3.5
v -1.5 10 3.5
v 1.5 10 3.5
v 2.5 10 3.5
v -3.5 10 2.5
v -2.5 10 2.5
v 2.5 10 2.5
v 3.5 10 2.5
v -3.5 10 -0.5
v -2.5 10 -0.5
v 2.5 10 -0.5
v 3.5 10 -0.5
v -2.5 10 -1.5
v -1.5 10 -1.5
v 1.5 10 -1.5
v 2.5 10 -1.5
v -1.5 10 -2.5
v -0.5 10 -2.5
v 0.5 10 -2.5
v 1.5 10 -2.5
v -2.5 10 -3.5
v -1.5 10 -3.5
v -0.5 10 -3.5
v 0.5 10 -3.5
v 1.5 10 -3.5
v 2.5 10 -3.5
v -1.5 10 -4.5
v 1.5 10 -4.5
v -1.5 11 4.5
v 1.5 11 4.5
v -2.5 11 3.5
v -1.5 11 3.5
v -0.5 11 3.5
v 0.5 11 3.5
v 1.5 11 3.5
v 2.5 11 3.5
v -1.5 11 2.5
v -0.5 11 2.5
v 0.5 11 2.5
v 1.5 11 2.5
v -1.5 11 -0.5
v -0.5 11 -0.5
v 0.5 11 -0.5
v 1.5 11 -0.5
v -2.5 11 -1.5
v -1.5 11 -1.5
v -0.5 11 -1.5
v 0.5 11 -1.5
v 1.5 11 -1.5
v 2.5 11 -1.5
v -1.5 11 -2.5
v -0.5 11 -2.5
v 0.5 11 -2.5
v 1.5 11 -2.5
v -0.5 11 -3.5
v 0.5 11 -3.5
v -0.5 12 3.5
v 0.5 12 3.5
v -1.5 12 2.5
v -0.5 12 2.5
v 0.5 12 2.5
v 1.5 12 2.5
v -1.5 12 -0.5
v -0.5 12 -0.5
v 0.5 12 -0.5
v 1.5 12 -0.5
v -0.5 12 -1.5
v 0.5 12 -1.5

# faces
f 4/3/1 2/3/1 1/3/1
f 5/3/1 2/3/1 4/3/1
f 7/3/1 4/3/1 3/3/1
f 7/3/1 6/3/1 5/3/1
f 7/3/1 5/3/1 4/3/1
f 8/3/1 6/3/1 7/3/1
f 9/3/1 7/3/1 3/3/1
f 10/3/1 7/3/1 9/3/1
f 11/3/1 7/3/1 10/3/1
f 12/3/1 7/3/1 11/3/1
f 13/3/1 11/3/1 10/3/1
f 14/3/1 11/3/1 13/3/1
f 18/5/1 16/5/1 15/5/1
f 20/3/1 18/3/1 17/3/1
f 21/5/1 16/5/1 18/5/1
f 21/3/1 18/3/1 20/3/1
f 22/5/1 16/5/1 21/5/1
f 24/3/1 20/3/1 19/3/1
f 25/3/1 20/3/1 24/3/1
f 26/3/1 23/3/1 22/3/1
f 26/3/1 22/3/1 21/3/1
f 27/3/1 23/3/1 26/3/1
f 30/3/1 28/3/1 27/3/1
f 34/3/1 30/3/1 29/3/1
f 35/3/1 28/3/1 30/3/1
f 35/3/1 30/3/1 34/3/1
f 36/3/1 28/3/1 35/3/1
f 37/3/1 32/3/1 31/3/1
f 38/3/1 32/3/1 37/3/1
f 39/3/1 34/3/1 33/3/1
f 39/3/1 35/3/1 34/3/1
f 40/3/1 35/3/1 39/3/1
f 41/3/1 35/3/1 40/3/1
f 42/3/1 39/3/1 38/3/1
f 42/3/1 40/3/1 39/3/1
f 43/3/1 40/3/1 42/3/1
f 46/4/1 45/4/1 44/4/1
f 47/4/1 45/4/1 46/4/1
f 50/4/1 46/4/1 44/4/1
f 51/4/1 46/4/1 50/4/1
f 52/3/1 49/3/1 48/3/1
f 53/3/1 49/3/1 52/3/1
f 54/4/1 45/4/1 47/4/1
f 55/4/1 45/4/1 54/4/1
f 58/3/1 57/3/1 56/3/1
f 59/3/1 57/3/1 58/3/1
f 60/3/1 57/3/1 59/3/1
f 61/3/1 57/3/1 60/3/1
f 67/3/1 63/3/1 62/3/1
f 68/3/1 65/3/1 64/3/1
f 69/3/1 65/3/1 68/3/1
f 70/3/1 65/3/1 69/3/1
f 71/3/1 67/3/1 66/3/1
f 72/3/1 67/3/1 71/3/1
f 73/3/1 63/3/1 67/3/1
f 73/3/1 67/3/1 72/3/1
f 74/3/1 70/3/1 69/3/1
f 74/3/1 72/3/1 71/3/1
f 74/3/1 71/3/1 70/3/1
f 75/3/1 72/3/1 74/3/1
f 78/3/1 77/3/1 76/3/1
f 80/3/1 78/3/1 76/3/1
f 80/3/1 79/3/1 78/3/1
f 81/3/1 79/3/1 80/3/1
f 88/3/1 83/3/1 82/3/1
f 89/3/1 83/3/1 88/3/1
f 90/3/1 85/3/1 84/3/1
f 91/3/1 85/3/1 90/3/1
f 94/3/1 87/3/1 86/3/1
f 95/3/1 87/3/1 94/3/1
f 96/3/1 93/3/1 92/3/1
f 97/3/1 93/3/1 96/3/1
f 104/3/1 99/3/1 98/3/1
f 105/3/1 99/3/1 104/3/1
f 106/3/1 101/3/1 100/3/1
f 107/3/1 101/3/1 106/3/1
f 108/3/1 103/3/1 102/3/1
f 109/3/1 103/3/1 108/3/1
f 112/4/1 111/4/1 110/4/1
f 113/4/1 111/4/1 112/4/1
f 116/3/1 115/3/1 114/3/1
f 117/3/1 115/3/1 116/3/1
f 120/3/1 119/3/1 118/3/1
f 121/3/1 119/3/1 120/3/1
f 124/3/1 123/3/1 122/3/1
f 125/3/1 123/3/1 124/3/1
f 128/3/1 127/3/1 126/3/1
f 129/3/1 127/3/1 128/3/1
f 130/3/2 131/3/2 132/3/2
f 132/3/2 131/3/2 133/3/2
f 134/3/2 135/3/2 136/3/2
f 136/3/2 135/3/2 137/3/2
f 138/3/2 139/3/2 140/3/2
f 140/3/2 139/3/2 141/3/2
f 142/3/2 143/3/2 144/3/2
f 144/3/2 143/3/2 145/3/2
f 146/4/2 147/4/2 148/4/2
f 148/4/2 147/4/2 149/4/2
f 150/3/2 151/3/2 156/3/2
f 156/3/2 151/3/2 157/3/2
f 152/3/2 153/3/2 158/3/2
f 158/3/2 153/3/2 159/3/2
f 154/3/2 155/3/2 160/3/2
f 160/3/2 155/3/2 161/3/2
f 162/3/2 163/3/2 164/3/2
f 162/3/2 164/3/2 166/3/2
f 164/3/2 165/3/2 166/3/2
f 166/3/2 165/3/2 167/3/2
f 168/3/2 169/3/2 174/3/2
f 174/3/2 169/3/2 175/3/2
f 170/3/2 171/3/2 176/3/2
f 176/3/2 171/3/2 177/3/2
f 172/3/2 173/3/2 180/3/2
f 180/3/2 173/3/2 181/3/2
f 178/3/2 179/3/2 182/3/2
f 182/3/2 179/3/2 183/3/2
f 184/4/2 185/4/2 186/4/2
f 186/4/2 185/4/2 187/4/2
f 184/4/2 186/4/2 190/4/2
f 190/4/2 186/4/2 191/4/2
f 188/3/2 189/3/2 192/3/2
f 192/3/2 189/3/2 193/3/2
f 187/4/2 185/4/2 194/4/2
f 194/4/2 185/4/2 195/4/2
f 196/3/2 197/3/2 198/3/2
f 198/3/2 197/3/2 199/3/2
f 199/3/2 197/3/2 200/3/2
f 200/3/2 197/3/2 201/3/2
f 202/3/2 203/3/2 207/3/2
f 204/3/2 205/3/2 208/3/2
f 208/3/2 205/3/2 209/3/2
f 209/3/2 205/3/2 210/3/2
f 206/3/2 207/3/2 211/3/2
f 211/3/2 207/3/2 212/3/2
f 207/3/2 203/3/2 213/3/2
f 212/3/2 207/3/2 213/3/2
f 209/3/2 210/3/2 214/3/2
f 211/3/2 212/3/2 214/3/2
f 210/3/2 211/3/2 214/3/2
f 214/3/2 212/3/2 215/3/2
f 216/5/2 217/5/2 219/5/2
f 218/3/2 219/3/2 221/3/2
f 219/5/2 217/5/2 222/5/2
f 221/3/2 219/3/2 222/3/2
f 222/5/2 217/5/2 223/5/2
f 220/3/2 221/3/2 225/3/2
f 225/3/2 221/3/2 226/3/2
f 223/3/2 224/3/2 227/3/2
f 222/3/2 223/3/2 227/3/2
f 227/3/2 224/3/2 228/3/2
f 228/3/2 229/3/2 231/3/2
f 230/3/2 231/3/2 235/3/2
f 231/3/2 229/3/2 236/3/2
f 235/3/2 231/3/2 236/3/2
f 236/3/2 229/3/2 237/3/2
f 232/3/2 233/3/2 238/3/2
f 238/3/2 233/3/2 239/3/2
f 234/3/2 235/3/2 240/3/2
f 235/3/2 236/3/2 240/3/2
f 240/3/2 236/3/2 241/3/2
f 241/3/2 236/3/2 242/3/2
f 239/3/2 240/3/2 243/3/2
f 240/3/2 241/3/2 243/3/2
f 243/3/2 241/3/2 244/3/2
f 245/3/2 246/3/2 248/3/2
f 248/3/2 246/3/2 249/3/2
f 247/3/2 248/3/2 251/3/2
f 249/3/2 250/3/2 251/3/2
f 248/3/2 249/3/2 251/3/2
f 251/3/2 250/3/2 252/3/2
f 247/3/2 251/3/2 253/3/2
f 253/3/2 251/3/2 254/3/2
f 254/3/2 251/3/2 255/3/2
f 255/3/2 251/3/2 256/3/2
f 254/3/2 255/3/2 257/3/2
f 257/3/2 255/3/2 258/3/2
f 262/3/3 260/3/3 259/3/3
f 263/3/3 260/3/3 262/3/3
f 264/3/3 260/3/3 263/3/3
f 267/3/3 262/3/3 261/3/3
f 268/3/3 262/3/3 267/3/3
f 269/3/3 264/3/3 263/3/3
f 269/3/3 265/3/3 264/3/3
f 270/3/3 265/3/3 269/3/3
f 272/3/3 271/3/3 270/3/3
f 273/3/3 271/3/3 272/3/3
f 276/3/3 274/3/3 273/3/3
f 277/3/3 274/3/3 276/3/3
f 278/3/3 267/3/3 266/3/3
f 279/3/3 267/3/3 278/3/3
f 282/3/3 276/3/3 275/3/3
f 283/3/3 276/3/3 282/3/3
f 284/3/3 280/3/3 279/3/3
f 285/3/3 280/3/3 284/3/3
f 286/3/3 282/3/3 281/3/3
f 287/3/3 282/3/3 286/3/3
f 288/3/3 282/3/3 287/3/3
f 289/3/3 286/3/3 285/3/3
f 289/3/3 287/3/3 286/3/3
f 290/3/3 287/3/3 289/3/3
f 294/3/3 292/3/3 291/3/3
f 295/3/3 292/3/3 294/3/3
f 296/3/3 294/3/3 293/3/3
f 297/3/3 294/3/3 296/3/3
f 300/3/3 299/3/3 298/3/3
f 301/3/3 299/3/3 300/3/3
f 304/3/3 303/3/3 302/3/3
f 305/3/3 303/3/3 304/3/3
f 310/3/3 307/3/3 306/3/3
f 311/3/3 307/3/3 310/3/3
f 312/3/3 309/3/3 308/3/3
f 313/3/3 309/3/3 312/3/3
f 315/3/3 314/3/3 313/3/3
f 316/3/3 314/3/3 315/3/3
f 321/3/3 318/3/3 317/3/3
f 322/3/3 318/3/3 321/3/3
f 327/6/3 320/6/3 319/6/3
f 328/6/3 320/6/3 327/6/3
f 329/3/3 323/3/3 322/3/3
f 330/3/3 323/3/3 329/3/3
f 331/6/3 328/6/3 327/6/3
f 331/6/3 327/6/3 326/6/3
f 331/6/3 329/6/3 328/6/3
f 332/6/3 329/6/3 331/6/3
f 333/6/3 329/6/3 332/6/3
f 337/4/3 325/4/3 324/4/3
f 338/4/3 325/4/3 337/4/3
f 339/6/3 331/6/3 326/6/3
f 339/1/3 332/1/3 331/1/3
f 340/6/3 334/6/3 333/6/3
f 340/1/3 332/1/3 339/1/3
f 340/6/3 333/6/3 332/6/3
f 341/3/3 336/3/3 335/3/3
f 342/3/3 336/3/3 341/3/3
f 344/4/3 325/4/3 338/4/3
f 345/6/3 339/6/3 326/6/3
f 345/6/3 340/6/3 339/6/3
f 346/6/3 334/6/3 340/6/3
f 346/6/3 340/6/3 345/6/3
f 349/6/3 345/6/3 326/6/3
f 349/1/3 346/1/3 345/1/3
f 350/6/3 334/6/3 346/6/3
f 350/1/3 346/1/3 349/1/3
f 351/6/3 334/6/3 350/6/3
f 352/6/3 334/6/3 351/6/3
f 353/3/3 348/3/3 347/3/3
f 354/3/3 348/3/3 353/3/3
f 355/4/3 344/4/3 343/4/3
f 356/4/3 325/4/3 344/4/3
f 356/4/3 344/4/3 355/4/3
f 357/6/3 349/6/3 326/6/3
f 357/6/3 350/6/3 349/6/3
f 357/6/3 351/6/3 350/6/3
f 358/6/3 351/6/3 357/6/3
f 359/6/3 351/6/3 358/6/3
f 360/6/3 351/6/3 359/6/3
f 362/6/3 359/6/3 358/6/3
f 363/6/3 359/6/3 362/6/3
f 365/3/3 361/3/3 360/3/3
f 366/3/3 361/3/3 365/3/3
f 367/3/3 365/3/3 364/3/3
f 368/3/3 365/3/3 367/3/3
f 371/5/3 370/5/3 369/5/3
f 372/5/3 370/5/3 371/5/3
f 375/5/3 374/5/3 373/5/3
f 376/5/3 374/5/3 375/5/3
f 379/3/3 378/3/3 377/3/3
f 380/3/3 378/3/3 379/3/3
f 381/3/4 382/3/4 383/3/4
f 383/3/4 382/3/4 384/3/4
f 385/3/4 386/3/4 387/3/4
f 387/3/4 386/3/4 388/3/4
f 389/3/4 390/3/4 391/3/4
f 391/3/4 390/3/4 392/3/4
f 393/3/4 394/3/4 395/3/4
f 395/3/4 394/3/4 396/3/4
f 397/5/4 398/5/4 401/5/4
f 401/5/4 398/5/4 402/5/4
f 399/3/4 400/3/4 403/3/4
f 403/3/4 400/3/4 404/3/4
f 405/3/4 406/3/4 407/3/4
f 407/3/4 406/3/4 408/3/4
f 409/3/4 410/3/4 411/3/4
f 411/3/4 410/3/4 412/3/4
f 413/5/4 414/5/4 417/5/4
f 417/5/4 414/5/4 418/5/4
f 415/3/4 416/3/4 419/3/4
f 419/3/4 416/3/4 420/3/4
f 421/3/4 422/3/4 423/3/4
f 423/3/4 422/3/4 424/3/4
f 427/3/4 428/3/4 429/3/4
f 429/3/4 428/3/4 430/3/4
f 425/4/4 426/4/4 431/4/4
f 431/4/4 426/4/4 432/4/4
f 432/4/4 426/4/4 436/4/4
f 433/3/4 434/3/4 437/3/4
f 437/3/4 434/3/4 438/3/4
f 435/4/4 436/4/4 441/4/4
f 436/4/4 426/4/4 442/4/4
f 441/4/4 436/4/4 442/4/4
f 439/3/4 440/3/4 443/3/4
f 443/3/4 440/3/4 444/3/4
f 445/3/4 446/3/4 447/3/4
f 447/3/4 446/3/4 448/3/4
f 449/3/4 450/3/4 452/3/4
f 452/3/4 450/3/4 453/3/4
f 451/3/4 452/3/4 456/3/4
f 456/3/4 452/3/4 457/3/4
f 454/3/4 455/3/4 458/3/4
f 458/3/4 455/3/4 459/3/4
f 460/3/4 461/3/4 462/3/4
f 462/3/4 461/3/4 463/3/4
f 464/3/4 465/3/4 466/3/4
f 466/3/4 465/3/4 467/3/4
f 468/3/4 469/3/4 472/3/4
f 472/3/4 469/3/4 473/3/4
f 470/3/4 471/3/4 475/3/4
f 475/3/4 471/3/4 476/3/4
f 473/3/4 474/3/4 477/3/4
f 477/3/4 474/3/4 478/3/4
f 479/3/4 480/3/4 481/3/4
f 481/3/4 480/3/4 482/3/4
f 482/3/4 480/3/4 483/3/4
f 483/3/4 484/3/4 487/3/4
f 482/3/4 483/3/4 487/3/4
f 487/3/4 484/3/4 488/3/4
f 489/3/4 490/3/4 491/3/4
f 491/3/4 490/3/4 492/3/4
f 485/3/4 486/3/4 493/3/4
f 493/3/4 486/3/4 494/3/4
f 495/3/4 496/3/4 498/3/4
f 498/3/4 496/3/4 499/3/4
f 499/3/4 496/3/4 500/3/4
f 497/3/4 498/3/4 501/3/4
f 498/3/4 499/3/4 501/3/4
f 501/3/4 499/3/4 502/3/4
f 503/3/4 504/3/4 506/3/4
f 506/3/4 504/3/4 507/3/4
f 505/3/4 506/3/4 509/3/4
f 507/3/4 508/3/4 509/3/4
f 506/3/4 507/3/4 509/3/4
f 509/3/4 508/3/4 510/3/4
f 510/3/4 508/3/4 511/3/4
f 511/3/4 508/3/4 512/3/4
f 510/3/4 511/3/4 513/3/4
f 513/3/4 511/3/4 514/3/4
f 519/4/5 516/4/5 515/4/5
f 520/4/5 516/4/5 519/4/5
f 521/4/5 518/4/5 517/4/5
f 522/4/5 518/4/5 521/4/5
f 527/5/5 524/5/5 523/5/5
f 528/5/5 524/5/5 527/5/5
f 529/5/5 526/5/5 525/5/5
f 530/5/5 526/5/5 529/5/5
f 533/4/5 532/4/5 531/4/5
f 534/4/5 532/4/5 533/4/5
f 537/3/5 536/3/5 535/3/5
f 538/3/5 536/3/5 537/3/5
f 542/3/5 540/3/5 539/3/5
f 543/3/5 540/3/5 542/3/5
f 545/3/5 542/3/5 541/3/5
f 545/3/5 544/3/5 543/3/5
f 545/3/5 543/3/5 542/3/5
f 546/3/5 544/3/5 545/3/5
f 547/3/5 545/3/5 541/3/5
f 548/3/5 545/3/5 547/3/5
f 549/3/5 544/3/5 546/3/5
f 550/3/5 544/3/5 549/3/5
f 553/3/5 552/3/5 551/3/5
f 554/3/5 552/3/5 553/3/5
f 560/3/5 556/3/5 555/3/5
f 561/3/5 556/3/5 560/3/5
f 562/3/5 558/3/5 557/3/5
f 563/3/5 558/3/5 562/3/5
f 565/3/5 560/3/5 559/3/5
f 566/3/5 560/3/5 565/3/5
f 567/3/5 564/3/5 563/3/5
f 568/3/5 564/3/5 567/3/5
f 573/3/5 570/3/5 569/3/5
f 574/3/5 572/3/5 571/3/5
f 575/3/5 573/3/5 569/3/5
f 575/3/5 574/3/5 573/3/5
f 576/3/5 574/3/5 575/3/5
f 577/3/5 574/3/5 576/3/5
f 578/3/5 574/3/5 577/3/5
f 579/3/5 572/3/5 574/3/5
f 579/3/5 574/3/5 578/3/5
f 580/3/5 572/3/5 579/3/5
f 581/3/5 577/3/5 576/3/5
f 582/3/5 577/3/5 581/3/5
f 583/3/5 579/3/5 578/3/5
f 584/3/5 579/3/5 583/3/5
f 589/3/5 586/3/5 585/3/5
f 590/3/5 586/3/5 589/3/5
f 591/3/5 588/3/5 587/3/5
f 592/3/5 588/3/5 591/3/5
f 597/3/5 594/3/5 593/3/5
f 598/3/5 594/3/5 597/3/5
f 601/3/5 596/3/5 595/3/5
f 602/3/5 596/3/5 601/3/5
f 603/3/5 599/3/5 598/3/5
f 604/3/5 599/3/5 603/3/5
f 605/3/5 601/3/5 600/3/5
f 606/3/5 601/3/5 605/3/5
f 611/3/5 608/3/5 607/3/5
f 612/3/5 608/3/5 611/3/5
f 613/3/5 610/3/5 609/3/5
f 614/3/5 610/3/5 613/3/5
f 619/3/5 616/3/5 615/3/5
f 620/3/5 616/3/5 619/3/5
f 621/3/5 618/3/5 617/3/5
f 622/3/5 618/3/5 621/3/5
f 625/3/5 624/3/5 623/3/5
f 626/3/5 624/3/5 625/3/5
f 627/3/6 628/3/6 629/3/6
f 629/3/6 628/3/6 630/3/6
f 631/3/6 632/3/6 635/3/6
f 635/3/6 632/3/6 636/3/6
f 633/3/6 634/3/6 637/3/6
f 637/3/6 634/3/6 638/3/6
f 639/3/6 640/3/6 643/3/6
f 643/3/6 640/3/6 644/3/6
f 641/3/6 642/3/6 645/3/6
f 645/3/6 642/3/6 646/3/6
f 647/3/6 648/3/6 651/3/6
f 651/3/6 648/3/6 652/3/6
f 649/3/6 650/3/6 653/3/6
f 653/3/6 650/3/6 654/3/6
f 655/3/6 656/3/6 659/3/6
f 659/3/6 656/3/6 660/3/6
f 657/3/6 658/3/6 661/3/6
f 661/3/6 658/3/6 662/3/6
f 663/3/6 664/3/6 667/3/6
f 667/3/6 664/3/6 668/3/6
f 665/3/6 666/3/6 669/3/6
f 669/3/6 666/3/6 670/3/6
f 671/3/6 672/3/6 675/3/6
f 675/3/6 672/3/6 676/3/6
f 673/3/6 674/3/6 677/3/6
f 677/3/6 674/3/6 678/3/6
f 679/3/6 680/3/6 684/3/6
f 684/3/6 680/3/6 685/3/6
f 681/3/6 682/3/6 686/3/6
f 686/3/6 682/3/6 687/3/6
f 683/3/6 684/3/6 689/3/6
f 689/3/6 684/3/6 690/3/6
f 687/3/6 688/3/6 691/3/6
f 691/3/6 688/3/6 692/3/6
f 693/3/6 694/3/6 697/3/6
f 697/3/6 694/3/6 698/3/6
f 695/3/6 696/3/6 699/3/6
f 699/3/6 696/3/6 700/3/6
f 701/3/6 702/3/6 705/3/6
f 705/3/6 702/3/6 706/3/6
f 703/3/6 704/3/6 707/3/6
f 707/3/6 704/3/6 708/3/6
f 709/3/6 710/3/6 713/3/6
f 713/3/6 710/3/6 714/3/6
f 711/3/6 712/3/6 715/3/6
f 715/3/6 712/3/6 716/3/6
f 717/3/6 718/3/6 721/3/6
f 719/3/6 720/3/6 724/3/6
f 721/3/6 722/3/6 725/3/6
f 717/3/6 721/3/6 725/3/6
f 725/3/6 722/3/6 726/3/6
f 726/3/6 722/3/6 727/3/6
f 723/3/6 724/3/6 728/3/6
f 724/3/6 720/3/6 729/3/6
f 728/3/6 724/3/6 729/3/6
f 729/3/6 720/3/6 730/3/6
f 726/3/6 727/3/6 731/3/6
f 727/3/6 728/3/6 731/3/6
f 728/3/6 729/3/6 731/3/6
f 731/3/6 729/3/6 732/3/6
f 733/3/6 734/3/6 736/3/6
f 736/3/6 734/3/6 737/3/6
f 737/3/6 734/3/6 738/3/6
f 738/3/6 734/3/6 739/3/6
f 735/3/6 736/3/6 741/3/6
f 736/3/6 737/3/6 741/3/6
f 741/3/6 737/3/6 742/3/6
f 739/3/6 740/3/6 743/3/6
f 738/3/6 739/3/6 743/3/6
f 743/3/6 740/3/6 744/3/6
f 735/3/6 741/3/6 745/3/6
f 744/3/6 740/3/6 748/3/6
f 745/3/6 746/3/6 749/3/6
f 735/3/6 745/3/6 749/3/6
f 749/3/6 746/3/6 750/3/6
f 750/3/6 746/3/6 751/3/6
f 747/3/6 748/3/6 752/3/6
f 748/3/6 740/3/6 753/3/6
f 752/3/6 748/3/6 753/3/6
f 753/3/6 740/3/6 754/3/6
f 750/3/6 751/3/6 755/3/6
f 751/3/6 752/3/6 755/3/6
f 752/3/6 753/3/6 755/3/6
f 755/3/6 753/3/6 756/3/6
f 756/3/6 753/3/6 757/3/6
f 757/3/6 753/3/6 758/3/6
f 756/3/6 757/3/6 759/3/6
f 759/3/6 757/3/6 760/3/6
f 761/3/6 762/3/6 764/3/6
f 764/3/6 762/3/6 765/3/6
f 763/3/6 764/3/6 767/3/6
f 765/3/6 766/3/6 767/3/6
f 764/3/6 765/3/6 767/3/6
f 767/3/6 766/3/6 768/3/6
f 768/3/6 766/3/6 769/3/6
f 769/3/6 766/3/6 770/3/6
f 768/3/6 769/3/6 771/3/6
f 771/3/6 769/3/6 772/3/6
